<svg width="62" height="122" viewBox="0 0 62 122" fill="none" xmlns="http://www.w3.org/2000/svg">
<path d="M3.95997 121.92L16.32 108.96H45.96L57.6 121.92H3.95997ZM0.359971 63L13.32 75.48V104.88L0.359971 116.64V63ZM61.44 116.64L48.48 104.28V74.76L61.44 63V116.64ZM14.28 67.32C11.48 65.08 8.63997 62.88 5.75997 60.72L14.28 54.36H47.04L55.44 60.72L47.04 67.32H14.28ZM3.83997 -1.85966e-05H57.48L45.6 12.96H16.2L3.83997 -1.85966e-05ZM-2.82526e-05 58.8V5.15998L12.96 16.8V46.56L-2.82526e-05 58.8ZM61.08 5.15998V58.8L48.12 47.16V17.52L61.08 5.15998Z" fill="black"/>
</svg>
